<?xml version="1.0" standalone="no"?>
<!DOCTYPE svg PUBLIC "-//W3C//DTD SVG 20010904//EN"
 "http://www.w3.org/TR/2001/REC-SVG-20010904/DTD/svg10.dtd">
<svg version="1.0" xmlns="http://www.w3.org/2000/svg"
 width="900.000000pt" height="462.000000pt" viewBox="0 0 900.000000 462.000000"
 preserveAspectRatio="xMidYMid meet">

<g transform="translate(0.000000,462.000000) scale(0.100000,-0.100000)"
fill="#000000" stroke="none">
<path d="M5042 4184 c-18 -9 -43 -30 -57 -45 -13 -16 -26 -29 -30 -29 -3 0
-23 -17 -44 -37 -30 -30 -191 -179 -247 -228 -35 -31 -191 -174 -211 -193 -13
-13 -45 -42 -71 -64 -26 -22 -94 -84 -152 -138 -101 -93 -200 -183 -248 -224
-29 -26 -50 -28 -62 -8 -5 10 -10 13 -10 8 0 -4 -8 0 -17 11 -10 10 -13 12 -8
3 9 -13 8 -13 -7 -1 -10 7 -18 20 -18 28 0 8 -4 11 -10 8 -5 -3 -10 -1 -10 5
0 6 -5 8 -10 5 -6 -4 -7 -11 -4 -17 4 -6 2 -8 -4 -5 -5 4 -8 17 -4 29 3 13 1
19 -5 15 -6 -4 -13 0 -16 7 -3 8 -15 20 -26 25 -17 10 -19 8 -16 -10 3 -12 1
-18 -3 -15 -7 7 -8 11 -11 37 0 6 -8 9 -16 5 -8 -3 -14 -2 -14 2 4 22 -3 32
-22 32 -13 0 -18 -4 -13 -12 4 -7 3 -8 -4 -4 -6 4 -9 13 -6 20 6 16 -21 40
-35 31 -7 -4 -8 1 -4 12 6 16 4 16 -17 -2 l-23 -20 14 24 c11 18 11 25 2 28
-12 4 -74 49 -103 75 -8 7 -38 14 -66 16 -48 3 -53 1 -97 -40 -26 -24 -47 -49
-47 -56 0 -6 -4 -11 -8 -10 -11 4 -64 -42 -84 -74 -30 -46 -20 -77 41 -132 19
-17 42 -40 50 -50 16 -18 34 -36 77 -73 19 -16 114 -101 217 -193 l39 -36 -34
-31 c-18 -18 -44 -43 -59 -55 -150 -134 -214 -194 -276 -255 -65 -63 -73 -75
-73 -109 0 -34 8 -45 96 -130 99 -94 136 -114 186 -98 19 6 244 166 258 183 6
8 147 115 202 153 36 26 39 27 57 10 10 -9 49 -44 86 -77 37 -33 93 -84 124
-113 31 -30 92 -86 135 -125 44 -40 91 -83 106 -97 15 -14 69 -63 120 -110
149 -135 239 -218 323 -297 43 -40 80 -73 82 -73 3 0 20 -16 40 -35 35 -36 72
-55 104 -55 21 0 61 32 61 49 0 6 5 11 10 11 6 0 10 113 10 320 l0 320 -22 10
c-13 5 -43 25 -68 44 -24 19 -49 32 -54 29 -5 -4 -6 -1 -2 5 4 7 4 12 -1 12
-4 0 -23 14 -42 30 -18 16 -38 27 -44 23 -6 -3 -7 -1 -3 5 4 7 3 12 -1 12 -11
0 -44 25 -83 62 -16 14 -31 23 -34 20 -3 -3 -6 1 -6 8 0 7 -3 11 -6 7 -3 -3
-15 3 -27 13 -11 11 -39 32 -61 47 -22 16 -48 35 -57 43 -47 43 -98 76 -111
72 -5 -1 -8 4 -8 11 0 7 -14 24 -31 36 -26 19 -33 21 -41 10 -8 -11 -9 -11 -5
2 4 10 -3 21 -18 29 -14 7 -22 17 -19 22 5 7 -26 13 -49 9 -5 -1 -6 3 -2 9 4
6 2 16 -4 23 -14 17 -6 27 69 81 36 27 67 51 70 55 3 3 59 46 125 95 66 50
126 96 133 103 7 7 17 13 21 13 4 0 16 8 27 18 10 10 83 66 161 125 78 58 144
111 148 117 3 5 15 10 26 10 18 0 19 10 19 318 l0 318 -27 32 c-35 39 -68 47
-111 26z m-1545 -669 c0 -8 -4 -12 -9 -9 -5 3 -6 10 -3 15 9 13 12 11 12 -6z
m72 -54 c0 -14 -1 -14 -6 -1 -12 33 -25 41 -42 28 -14 -12 -14 -11 -2 5 13 16
15 16 32 1 11 -10 19 -24 18 -33z m26 0 c3 -5 2 -12 -3 -15 -5 -3 -9 1 -9 9 0
17 3 19 12 6z m60 -50 c3 -5 2 -12 -3 -15 -5 -3 -9 1 -9 9 0 17 3 19 12 6z
m131 -99 c-3 -3 0 -12 6 -21 10 -13 10 -14 -2 -4 -16 15 -23 46 -8 37 5 -3 7
-9 4 -12z"/>
<path d="M2727 1074 c-4 -4 -7 -187 -7 -406 0 -392 0 -398 20 -398 20 0 20 5
18 402 -3 384 -6 427 -31 402z"/>
<path d="M5107 1073 c-4 -3 -7 -75 -7 -159 0 -93 -4 -155 -10 -159 -6 -4 -28
7 -49 24 -30 24 -51 31 -97 35 -103 8 -130 -1 -193 -63 -51 -50 -59 -63 -74
-127 -21 -88 -21 -110 -1 -186 33 -131 91 -178 214 -178 78 0 118 14 163 56
32 29 47 24 47 -17 0 -22 5 -29 20 -29 20 0 20 7 20 394 0 317 -3 396 -13 405
-8 6 -17 8 -20 4z m-117 -306 c72 -34 109 -110 110 -223 0 -157 -78 -254 -205
-254 -72 0 -127 41 -166 126 -42 89 -11 257 58 318 56 49 140 63 203 33z"/>
<path d="M8157 1073 c-4 -3 -7 -78 -7 -165 0 -134 -2 -158 -15 -158 -8 0 -15
4 -15 9 0 5 -16 19 -35 31 -28 17 -52 22 -119 23 -92 1 -117 -9 -165 -66 -63
-74 -66 -83 -66 -212 0 -140 10 -169 80 -234 l45 -41 81 0 c90 0 136 16 170
58 22 29 36 22 41 -23 2 -22 8 -30 23 -30 20 0 20 8 23 385 1 212 0 395 -3
408 -5 21 -25 29 -38 15z m-125 -300 c47 -18 88 -50 88 -69 0 -6 7 -17 15 -24
12 -10 15 -38 15 -132 0 -128 -4 -144 -54 -196 -105 -112 -279 -64 -316 87
-22 89 -22 102 -4 167 27 94 76 147 164 177 27 10 49 7 92 -10z"/>
<path d="M3380 1033 c-36 -7 -107 -69 -130 -113 -25 -49 -25 -86 0 -142 16
-38 69 -98 85 -98 3 0 24 -13 47 -30 22 -16 47 -30 55 -30 7 0 13 -4 13 -9 0
-5 8 -12 18 -15 25 -8 87 -65 101 -93 15 -30 14 -84 -4 -126 -11 -27 -27 -41
-69 -61 -30 -14 -71 -26 -91 -26 -38 0 -133 26 -150 41 -17 16 -26 9 -23 -19
4 -40 57 -55 184 -50 93 3 104 6 138 32 91 69 100 213 19 287 -33 29 -133 97
-173 115 -25 12 -84 65 -102 93 -22 33 -23 83 -1 124 40 79 129 102 271 72 28
-6 32 -5 32 13 0 11 -8 23 -17 26 -26 8 -174 14 -203 9z"/>
<path d="M6720 1030 c-95 -14 -189 -90 -242 -197 -32 -66 -33 -70 -33 -199 0
-124 1 -133 29 -190 36 -72 87 -124 156 -159 50 -25 58 -26 181 -23 117 3 130
5 151 25 12 12 19 25 15 29 -3 3 -38 -1 -78 -10 -39 -9 -88 -16 -108 -16 -40
0 -116 21 -152 42 -31 18 -119 110 -119 124 0 6 -7 25 -15 40 -11 21 -15 61
-15 143 0 109 2 118 32 178 49 97 102 142 204 173 38 11 115 10 212 -5 33 -6
42 -4 42 8 0 8 -6 20 -13 26 -16 12 -181 20 -247 11z"/>
<path d="M210 1018 c0 -16 33 -105 43 -114 4 -4 7 -14 7 -22 0 -8 6 -28 14
-45 7 -18 21 -54 31 -82 9 -27 23 -64 31 -82 8 -17 14 -36 14 -42 0 -6 4 -19
9 -29 6 -9 19 -44 30 -77 11 -33 30 -85 41 -115 12 -30 24 -64 27 -75 11 -44
27 -65 50 -65 14 0 23 6 23 15 0 8 6 29 14 47 8 18 21 49 30 70 9 20 16 40 16
45 0 10 22 60 41 95 5 10 9 26 9 36 0 10 7 27 15 38 8 10 15 27 15 36 0 9 6
29 14 45 14 29 21 44 51 123 9 25 23 58 31 73 8 16 14 36 14 45 0 9 7 26 15
36 24 31 19 56 -10 56 -17 0 -25 -6 -25 -17 0 -10 -7 -27 -15 -37 -8 -11 -15
-27 -15 -36 0 -15 -16 -57 -39 -100 -5 -9 -12 -30 -15 -48 -4 -17 -12 -34 -17
-37 -5 -4 -9 -15 -9 -27 0 -11 -6 -32 -14 -46 -8 -15 -22 -47 -31 -72 -9 -25
-21 -52 -25 -60 -4 -9 -11 -30 -14 -48 -4 -17 -12 -34 -17 -37 -5 -4 -9 -14
-9 -24 0 -22 -38 -73 -50 -66 -5 3 -11 23 -15 45 -4 22 -11 42 -16 46 -5 3 -9
12 -9 21 0 9 -14 53 -31 97 -18 45 -35 90 -40 101 -4 11 -15 45 -24 75 -10 30
-24 67 -31 82 -8 14 -14 35 -14 46 0 12 -4 23 -9 27 -5 3 -13 20 -17 37 -3 18
-13 43 -21 55 -16 24 -53 32 -53 11z"/>
<path d="M924 1006 c-7 -30 1 -46 25 -46 29 0 45 25 31 49 -15 29 -48 27 -56
-3z"/>
<path d="M5314 1005 c-8 -32 14 -59 40 -49 27 10 18 68 -11 72 -17 3 -24 -3
-29 -23z"/>
<path d="M3822 957 c-6 -7 -12 -42 -14 -77 l-3 -65 -43 -3 c-34 -3 -43 -7 -40
-20 2 -12 16 -19 43 -22 l40 -5 5 -215 c6 -278 12 -290 133 -290 34 0 49 4 54
16 9 25 -11 37 -41 23 -32 -15 -67 0 -87 37 -10 20 -16 255 -9 422 0 8 21 12
70 12 63 0 70 2 70 20 0 18 -7 20 -70 20 -77 0 -75 -3 -71 74 4 72 -12 103
-37 73z"/>
<path d="M1237 811 c-15 -3 -43 -21 -62 -40 -32 -31 -35 -38 -35 -96 0 -55 3
-64 32 -94 18 -18 67 -49 109 -68 83 -39 109 -68 109 -125 -1 -37 -12 -55 -54
-82 -34 -22 -104 -19 -156 7 -42 21 -40 22 -40 -8 0 -36 38 -48 141 -43 91 4
103 10 141 67 22 33 23 104 2 136 -18 28 -115 95 -137 95 -8 0 -32 13 -54 29
-33 24 -42 37 -45 67 -7 58 0 77 39 102 48 32 79 36 131 16 27 -10 47 -13 53
-7 16 16 -2 43 -30 44 -79 5 -119 5 -144 0z"/>
<path d="M2299 808 c-72 -10 -109 -34 -109 -69 l0 -30 33 24 c34 26 114 57
147 57 57 0 112 -56 126 -126 10 -50 -9 -74 -59 -74 -24 0 -69 -7 -100 -15
-32 -8 -65 -15 -74 -15 -9 0 -35 -16 -58 -34 -79 -66 -83 -171 -8 -237 31 -27
40 -29 109 -29 78 0 106 10 152 57 28 28 42 22 42 -18 0 -22 5 -29 20 -29 19
0 20 7 20 215 0 179 -3 222 -16 248 -21 41 -61 77 -88 78 -70 4 -97 3 -137 -3z
m192 -269 c7 -13 8 -42 4 -79 -5 -47 -14 -67 -42 -100 -99 -115 -263 -82 -263
53 0 67 78 126 167 128 26 1 59 5 73 9 40 13 49 11 61 -11z"/>
<path d="M5683 810 c-58 -13 -118 -68 -149 -139 -19 -43 -24 -70 -24 -137 0
-73 4 -92 30 -146 21 -45 42 -72 72 -93 42 -29 47 -30 154 -30 106 0 112 1
148 28 74 57 111 151 103 258 -10 130 -24 161 -102 225 -42 34 -49 36 -122 39
-43 1 -93 -1 -110 -5z m169 -43 c135 -57 170 -288 62 -411 -40 -46 -84 -66
-142 -66 -84 0 -153 43 -196 119 -29 52 -28 190 2 252 53 109 164 152 274 106z"/>
<path d="M7283 810 c-63 -14 -134 -86 -160 -160 -18 -49 -16 -176 3 -229 21
-62 50 -99 102 -132 40 -25 55 -29 123 -29 113 0 135 7 187 60 95 95 110 242
39 390 -14 31 -49 70 -61 70 -5 0 -17 6 -25 14 -19 16 -159 27 -208 16z m155
-39 c54 -21 98 -63 117 -108 21 -49 20 -199 -1 -248 -57 -137 -238 -169 -337
-61 -52 57 -69 112 -64 196 9 129 66 205 172 231 46 11 67 9 113 -10z"/>
<path d="M8508 812 c-14 -2 -32 -10 -38 -18 -7 -8 -16 -14 -21 -14 -10 0 -38
-28 -56 -56 -33 -50 -47 -95 -51 -165 -6 -107 19 -186 76 -245 51 -51 80 -59
190 -51 86 5 142 28 142 58 0 19 -11 25 -24 12 -16 -17 -104 -43 -142 -43
-108 0 -199 93 -192 198 l3 47 195 3 c107 1 198 6 202 10 9 9 -18 137 -37 178
-8 17 -30 43 -49 58 -28 21 -47 26 -103 28 -37 2 -80 2 -95 0z m135 -41 c46
-21 80 -60 90 -103 4 -16 10 -39 13 -53 8 -33 -9 -36 -196 -33 -150 3 -155 4
-158 25 -7 49 61 138 128 167 47 20 73 20 123 -3z"/>
<path d="M937 803 c-4 -3 -7 -125 -7 -270 0 -256 1 -263 20 -263 20 0 20 7 20
270 0 218 -3 270 -13 270 -8 0 -17 -3 -20 -7z"/>
<path d="M1579 805 c-3 -2 -4 -96 -3 -208 2 -185 4 -207 23 -244 40 -75 61
-88 162 -91 l89 -4 36 36 c45 45 64 46 64 6 0 -23 4 -30 20 -30 20 0 20 7 20
271 0 252 -1 270 -17 267 -16 -3 -19 -23 -24 -198 -4 -168 -8 -199 -24 -225
-39 -62 -91 -95 -150 -95 -44 0 -80 18 -120 60 l-30 31 -3 215 c-4 195 -6 214
-21 214 -10 0 -20 -2 -22 -5z"/>
<path d="M4110 600 c0 -234 6 -259 70 -314 28 -23 40 -26 105 -26 86 0 114 9
149 47 22 24 28 26 36 13 5 -8 7 -23 4 -32 -4 -14 0 -18 20 -18 l26 0 0 271
c0 252 -1 270 -17 267 -16 -3 -19 -23 -23 -199 -5 -193 -6 -196 -33 -237 -67
-103 -210 -110 -268 -14 -21 34 -23 53 -28 242 -5 184 -8 205 -23 208 -17 3
-18 -12 -18 -208z"/>
<path d="M5327 804 c-4 -4 -7 -125 -7 -270 0 -210 3 -263 13 -267 35 -13 37 5
35 274 -3 229 -5 264 -18 267 -9 1 -19 0 -23 -4z"/>
</g>
</svg>
